<svg width="689" height="396" viewBox="0 0 689 396" fill="none" xmlns="http://www.w3.org/2000/svg">
<path d="M393.571 295.152C380.875 305.807 358.687 336.294 331.471 352.859C319.368 360.224 275.899 358.248 279.176 373.456C278.997 378.727 290.487 378.401 300.315 378.265C312.518 378.453 322.442 378.579 338.698 378.376C378.495 377.883 384.67 378.484 411.951 357.036L393.571 295.152Z" fill="#DD5D4F"/>
<path d="M331.472 352.859C332.446 352.27 333.389 351.619 334.348 350.997C339.096 355.864 342.694 368.258 340.311 378.361C339.771 378.364 339.25 378.37 338.698 378.376C322.442 378.579 312.518 378.453 300.316 378.265C290.487 378.401 278.997 378.727 279.176 373.456C275.899 358.248 319.368 360.224 331.472 352.859Z" fill="#F9D3E0"/>
<path d="M553.649 285.543C530.267 318.863 542.791 360.279 550.941 373.456C554 378.394 540.203 379.15 541.149 393.673C551.544 394.567 557.078 394.235 566.732 393.673C577.032 387.85 628.657 287.34 624.582 250.968L553.649 285.543Z" fill="#E7C2CF"/>
<path d="M341.065 283.906C341.065 295.158 344.737 305.785 346.945 312.935C351.254 326.919 373.159 388.639 421.135 394.228C478.153 400.85 542.273 371.464 584.539 337.805C628.611 309.121 662.119 289.714 666.891 250.968C667.104 231.52 658.087 206.738 636.501 189.586C622.084 178.12 605.698 175.074 589.652 177.186C580.441 178.406 571.349 181.309 562.806 185.32C542.589 194.768 472.228 249.51 441.978 258.049C440.062 258.601 438.313 258.959 436.725 259.104C415.546 261.12 410.289 253.033 395.945 247.107C377.549 239.527 341.065 265.914 341.065 283.906Z" fill="#DD5D4F"/>
<path d="M395.945 247.119C407.962 252.081 426.855 257.581 440.849 258.364C440.414 282.019 425.933 307.29 407.346 324.68C400.021 331.528 391.715 340.761 383.357 347.867C380.358 350.414 373.6 356.422 369.065 358.771C357.735 341.387 348.591 321.853 346.504 315.083C344.29 307.937 341.066 295.152 341.066 283.9C341.066 265.908 377.555 239.521 395.945 247.119Z" fill="#F9D3E0"/>
<path d="M418.136 315.481C403.942 324.878 381.156 353.083 353.947 369.648C341.84 377.019 298.371 375.04 301.642 390.245C301.469 395.517 312.953 395.19 322.787 395.061C334.99 395.246 344.917 395.369 361.164 395.165C400.967 394.672 407.142 395.273 434.423 373.825L418.136 315.481Z" fill="#DD5D4F"/>
<path d="M353.946 369.648C354.918 369.059 355.864 368.418 356.82 367.792C361.571 372.654 365.162 385.047 362.776 395.15C362.24 395.156 361.715 395.162 361.164 395.165C344.917 395.369 334.99 395.246 322.787 395.061C312.953 395.19 301.469 395.517 301.642 390.245C298.371 375.04 341.84 377.019 353.946 369.648Z" fill="#F9D3E0"/>
<path d="M305.498 393.112C305.523 392.4 305.702 391.719 305.982 391.09C306.402 390.143 307.049 389.311 307.801 388.642C308.56 387.97 309.426 387.458 310.329 387.184C310.807 387.039 311.31 387.31 311.451 387.785C311.593 388.26 311.325 388.762 310.85 388.907C310.039 389.145 309.127 389.752 308.449 390.541C308.109 390.933 307.826 391.37 307.625 391.817C307.425 392.268 307.311 392.727 307.296 393.177C307.277 393.673 306.861 394.062 306.361 394.043C305.865 394.025 305.48 393.609 305.498 393.112Z" fill="#B993A0"/>
<path d="M542.727 392.699C542.678 392.428 542.656 392.153 542.656 391.882C542.657 391.207 542.787 390.535 542.995 389.875C543.309 388.889 543.802 387.936 544.368 387.1C544.936 386.262 545.571 385.544 546.225 385.032C546.617 384.727 547.183 384.798 547.488 385.189C547.793 385.581 547.723 386.148 547.331 386.453C547.033 386.684 546.688 387.027 546.352 387.44C545.847 388.059 545.36 388.839 545.011 389.632C544.659 390.421 544.453 391.229 544.455 391.882C544.455 392.058 544.47 392.224 544.497 392.375C544.586 392.866 544.262 393.334 543.773 393.424C543.284 393.51 542.816 393.186 542.727 392.699Z" fill="#B993A0"/>
<path d="M547.962 393.106C547.913 392.838 547.892 392.564 547.892 392.289C547.892 391.617 548.022 390.942 548.23 390.282C548.544 389.296 549.037 388.34 549.603 387.504C550.171 386.666 550.806 385.951 551.461 385.439C551.853 385.134 552.418 385.202 552.723 385.596C553.029 385.988 552.958 386.552 552.566 386.857C552.268 387.088 551.923 387.434 551.587 387.847C551.082 388.466 550.595 389.243 550.246 390.036C549.894 390.828 549.688 391.636 549.69 392.289C549.69 392.468 549.705 392.634 549.733 392.789C549.821 393.276 549.496 393.744 549.008 393.834C548.519 393.92 548.051 393.596 547.962 393.106Z" fill="#B993A0"/>
<path d="M301.814 390.566C301.838 389.854 302.017 389.172 302.298 388.543C302.72 387.597 303.364 386.765 304.12 386.096C304.875 385.424 305.741 384.912 306.648 384.637C307.122 384.496 307.625 384.764 307.767 385.239C307.912 385.716 307.64 386.216 307.165 386.361C306.358 386.601 305.442 387.205 304.767 387.995C304.425 388.386 304.141 388.824 303.941 389.274C303.743 389.721 303.626 390.181 303.611 390.631C303.592 391.127 303.176 391.515 302.68 391.497C302.183 391.478 301.795 391.062 301.814 390.566Z" fill="#B993A0"/>
<path d="M282.478 376.458C282.503 375.749 282.682 375.065 282.962 374.436C283.385 373.49 284.032 372.657 284.784 371.988C285.543 371.319 286.406 370.804 287.312 370.53C287.787 370.388 288.29 370.656 288.431 371.131C288.576 371.609 288.308 372.108 287.83 372.253C287.429 372.374 286.998 372.583 286.585 372.864C285.962 373.283 285.382 373.863 284.966 374.507C284.547 375.151 284.3 375.851 284.276 376.523C284.257 377.02 283.841 377.408 283.345 377.39C282.848 377.374 282.46 376.955 282.478 376.458Z" fill="#B993A0"/>
<path d="M279.317 373.471C279.345 372.762 279.524 372.077 279.804 371.448C280.224 370.502 280.871 369.673 281.627 369C282.382 368.331 283.248 367.82 284.151 367.542C284.626 367.4 285.129 367.669 285.274 368.146C285.415 368.621 285.147 369.124 284.672 369.266C284.269 369.386 283.837 369.595 283.424 369.876C282.801 370.295 282.222 370.875 281.805 371.519C281.389 372.164 281.139 372.863 281.118 373.535C281.099 374.032 280.683 374.42 280.187 374.402C279.69 374.383 279.302 373.967 279.317 373.471Z" fill="#B993A0"/>
<path d="M437.733 395.166C439.723 395.166 441.72 395.129 443.719 395.051C443.747 395.051 443.772 395.048 443.8 395.048C443.811 395.048 443.824 395.048 443.835 395.048C466.622 394.16 489.913 388.414 511.984 379.711C511.993 379.711 521.221 376.184 533.504 370.114L533.509 370.135C534.057 369.864 534.587 369.577 535.128 369.303C536.699 368.52 538.318 367.684 539.959 366.821C540.281 366.655 540.603 366.485 540.923 366.316C542.396 365.532 543.88 364.734 545.391 363.902C545.433 363.88 545.467 363.858 545.508 363.837C545.443 363.862 545.38 363.883 545.32 363.908C559.636 355.96 572.921 347.05 584.536 337.805C585.629 337.092 586.713 336.39 587.789 335.687C579.544 312.58 584.963 285.608 593.098 263.034C591.722 264.129 590.379 265.26 589.11 266.487C580.745 274.531 578.71 287.423 577.538 298.352C575.975 312.876 575.371 328.963 565.46 340.672C556.298 351.502 504.893 377.454 454.27 386.046C447.853 387.138 441.353 387.477 435.896 387.477C431.927 387.477 428.511 387.298 426.08 387.101C422.878 386.835 420.122 386.194 419.28 384.788C415.044 387.455 411.2 389.413 407.284 390.853C411.64 392.48 416.246 393.655 421.136 394.228C426.611 394.863 432.154 395.166 437.733 395.166Z" fill="#CD5649"/>
<path d="M362.775 395.147C366.386 395.104 369.715 395.067 372.801 395.017C388.613 394.768 398.14 394.201 407.268 390.846C407.274 390.849 407.277 390.852 407.284 390.852C411.199 389.413 415.043 387.455 419.279 384.788C418.928 384.203 418.909 383.484 419.335 382.603C421.739 377.633 425.331 365.804 423.737 358.661C418.536 370.857 413.539 378.484 406.969 383.447C401.617 387.492 391.958 388.593 385.817 389.015C378.326 389.524 370.85 390.701 363.367 391.602C363.244 392.804 363.05 393.991 362.775 395.147Z" fill="#CD5649"/>
<path d="M345.552 395.271C350.198 395.271 355.263 395.24 361.164 395.166C361.71 395.16 362.246 395.153 362.776 395.147C363.051 393.991 363.245 392.804 363.368 391.602C357.927 392.258 352.482 392.77 347.029 392.77C345.836 392.77 344.639 392.746 343.446 392.693C330.738 392.129 319.563 392.604 307.552 391.996C307.398 392.388 307.308 392.786 307.296 393.177C307.277 393.661 306.88 394.044 306.396 394.044C306.386 394.044 306.374 394.044 306.362 394.044C305.865 394.025 305.48 393.609 305.499 393.112C305.511 392.693 305.579 392.286 305.69 391.895C304.453 391.821 303.205 391.734 301.947 391.633C303.374 394.66 310.095 395.116 317.245 395.116C318.527 395.116 319.825 395.101 321.107 395.082C321.255 395.082 321.4 395.079 321.545 395.076C321.687 395.076 321.826 395.073 321.964 395.07C321.98 395.07 321.995 395.07 322.011 395.07C322.27 395.067 322.529 395.064 322.788 395.061C322.973 395.064 323.161 395.067 323.346 395.07C330.886 395.181 337.598 395.271 345.546 395.271C345.549 395.271 345.549 395.271 345.552 395.271Z" fill="#E7C2CF"/>
<path d="M306.395 394.043C306.879 394.043 307.276 393.661 307.295 393.177C307.307 392.786 307.397 392.388 307.551 391.996C306.931 391.966 306.311 391.932 305.689 391.895C305.578 392.286 305.51 392.693 305.498 393.112C305.479 393.609 305.864 394.025 306.361 394.043C306.373 394.043 306.385 394.043 306.395 394.043Z" fill="#8F727C"/>
<path d="M627.432 58.014C638.153 57.5238 658.3 70.244 665.011 76.3327C674.5 84.9372 680.291 91.3435 685.782 103.78C688.315 109.52 689.768 114.897 688.578 118.177C687.87 117.326 682.432 113.131 681.862 112.31C685.372 120.705 685.431 140.464 679.415 149.349C679.237 148.711 675.828 144.789 675.817 144.718C675.798 155.179 667.552 161.079 659.502 171.886C653.784 179.572 635.851 194.066 633.09 196.743L622.049 191.858C632.531 177.531 642.152 156.618 644.485 139.483C646.597 124.001 646.49 106.885 642.623 91.6333C640.261 82.3105 634.161 68.1815 626.63 58.6676" fill="#DD5D4F"/>
<path d="M359.69 306.581C366.389 308.418 373.48 308.896 380.466 308.986C390.781 309.127 401.741 306.824 410.346 300.791C418.031 295.402 425.434 286.354 427.986 277.404C429.557 271.889 430.716 266.016 431.335 260.309C431.691 257.02 426.938 257.985 423.648 257.627C423.624 257.621 418.867 256.412 418.509 259.687C416.9 274.472 412.732 280.937 403.764 288.481C398.939 292.535 391.164 295.871 384.505 296.799C369.885 298.833 345.623 290.053 340.687 286.215C338.073 284.187 338.137 289.656 338.544 292.939C338.954 296.222 340.465 297.865 343.178 299.518C348.265 302.625 353.87 304.981 359.69 306.581Z" fill="#67AAB6"/>
<path d="M394.65 244.704C415.318 239.361 438.95 194.007 435.197 185.95C432.732 183.005 415.792 194.512 407.428 199.837C400.865 204.014 393.376 207.167 385.98 209.666C381.119 212.98 382.373 222.696 384.35 229.616C386.56 237.368 390.87 245.685 394.65 244.704Z" fill="#DD5D4F"/>
<path d="M389.366 230.282C390.907 233.185 392.911 235.328 395.155 235.63C401.216 233.482 407.82 228.021 413.705 221.602C413.903 221.399 414.094 221.19 414.266 220.988C424.332 209.803 432.156 195.88 431.269 191.001C431.264 190.936 431.245 190.876 431.221 190.811C431.205 190.609 431.139 190.43 431.05 190.264C428.979 187.955 415.259 197.88 408.011 202.199C402.317 205.572 394.767 208.524 389.094 211.98C385.142 214.372 386.104 224.077 389.366 230.282Z" fill="#F9D3E0"/>
<path d="M415.839 219.126C425.036 208.019 432.006 195.485 431.27 191.001C431.264 190.936 431.246 190.876 431.222 190.811C431.205 190.608 431.139 190.43 431.051 190.263C430.705 190.263 424.265 202.223 419.024 208.291C417.106 210.549 414.563 213.122 411.952 215.542C413.324 216.686 414.625 217.884 415.839 219.126Z" fill="#DFBAC7"/>
<path d="M419.982 271.429C419.696 272.181 419.412 272.937 419.067 273.661C412.725 286.912 404.722 294.551 389.548 297.693C379.667 299.74 367.875 296.444 359.557 293.592C346.825 289.227 334.407 282.139 321.52 274.41C302.415 262.945 285.767 237.671 288.443 224.475C294.11 196.612 314.775 208.762 336.817 212.938C362.622 183.975 426.831 208.213 426.748 243.264C426.729 249.482 423.136 263.552 419.982 271.429Z" fill="#DD5D4F"/>
<path d="M287.613 223.767C294.054 194.185 314.774 208.762 336.817 212.938C343.939 204.942 354.001 201.016 364.822 200.236C364.742 200.307 364.665 200.366 364.588 200.433C345.884 202.806 332.76 229.419 333.247 247.226C333.568 259.002 338.519 270.27 346.972 279.208C352.121 284.646 358.061 290.963 364.81 295.264C363.037 295.008 361.329 294.188 359.557 293.593C346.377 289.166 334.144 285.096 321.652 276.76C288.162 254.415 284.494 238.071 287.613 223.767Z" fill="#F9D3E0"/>
<path d="M350.034 222.645C350.946 221.734 351.957 221.06 353.003 220.617C354.048 220.174 355.13 219.964 356.175 219.964C358.077 219.965 359.871 220.651 361.212 221.869C361.881 222.478 362.436 223.223 362.822 224.073C363.21 224.922 363.423 225.878 363.423 226.883C363.423 228.627 362.785 230.491 361.459 232.311C360.957 233.004 359.988 233.158 359.295 232.655C358.601 232.151 358.447 231.181 358.95 230.488C359.97 229.083 360.318 227.867 360.321 226.883C360.321 226.311 360.204 225.807 359.998 225.355C359.693 224.679 359.178 224.113 358.512 223.707C357.849 223.302 357.038 223.066 356.175 223.066C355.54 223.066 354.877 223.192 354.211 223.473C353.545 223.756 352.873 224.195 352.226 224.84C351.621 225.445 350.638 225.444 350.034 224.838C349.429 224.232 349.429 223.251 350.034 222.645" fill="#433634"/>
<path d="M307.838 236.539C306.414 237.058 304.854 237.301 303.257 237.302C301.469 237.301 299.631 236.997 297.868 236.412C295.226 235.533 292.747 234.026 290.906 231.928C289.988 230.879 289.229 229.681 288.702 228.348C288.175 227.014 287.882 225.546 287.882 223.97C287.882 221.437 288.64 218.639 290.342 215.64C290.586 215.212 291.128 215.062 291.557 215.305C291.985 215.548 292.137 216.092 291.893 216.519C290.311 219.307 289.664 221.795 289.664 223.97C289.667 225.777 290.108 227.376 290.872 228.786C292.016 230.899 293.903 232.587 296.123 233.745C298.339 234.903 300.88 235.521 303.257 235.52C304.672 235.52 306.031 235.302 307.227 234.865C307.69 234.696 308.202 234.934 308.368 235.397C308.538 235.859 308.3 236.37 307.838 236.539Z" fill="#433634"/>
<path d="M294.858 205.87C291.914 210.481 289.898 213.575 290.493 215.984C291.008 218.061 297.078 218.287 299.683 217.953C305.467 217.21 318.582 208.922 312.607 205.923C306.771 203.002 298.977 199.415 294.858 205.87Z" fill="#433634"/>
<path d="M305.612 207.158C306.441 207.158 307.36 206.862 306.644 205.977C306.114 205.328 305.269 204.978 304.48 204.621C303.543 204.193 302.566 203.87 301.524 203.668C301.314 203.629 300.768 203.549 300.198 203.549C299.384 203.549 298.518 203.713 298.518 204.4C298.518 205.388 300.719 205.983 301.385 206.179C302.553 206.524 303.725 206.798 304.955 207.09C305.14 207.133 305.371 207.158 305.612 207.158Z" fill="#665856"/>
<path d="M419.591 266.225C440.896 264.844 472.615 224.731 470.436 216.109C468.568 212.754 449.774 220.881 440.558 224.546C433.328 227.42 425.381 229.11 417.652 230.175C412.254 232.525 411.659 242.301 412.309 249.47C413.027 257.495 415.7 266.475 419.591 266.225Z" fill="#DD5D4F"/>
<path d="M417.109 251.063C418.074 254.199 419.643 256.686 421.792 257.405C428.151 256.431 435.661 252.303 442.646 247.102C442.872 246.935 443.104 246.768 443.312 246.601C455.295 237.504 465.588 225.296 465.63 220.334C465.641 220.274 465.635 220.209 465.624 220.143C465.641 219.941 465.611 219.751 465.558 219.572C463.95 216.918 448.619 224.088 440.688 226.974C434.465 229.223 426.485 230.698 420.269 233.036C415.944 234.643 415.068 244.359 417.109 251.063Z" fill="#F9D3E0"/>
<path d="M421.792 257.405C428.151 256.431 435.661 252.303 442.646 247.102C442.872 246.935 443.104 246.768 443.312 246.601C455.253 237.141 465.51 225.135 465.63 220.334C465.634 220.311 465.636 220.288 465.636 220.264C465.636 220.225 465.631 220.184 465.624 220.143C465.627 220.105 465.629 220.068 465.629 220.031C465.629 219.87 465.601 219.717 465.558 219.572C465.557 219.572 465.556 219.572 465.555 219.572C465.167 219.572 456.626 230.059 450.363 235.024C446.161 238.409 439.73 242.431 434.905 244.942C430.801 247.114 422.202 249.602 417.109 251.063C418.074 254.199 419.643 256.686 421.792 257.405Z" fill="#DFBAC7"/>
<path d="M445.722 272.406C449.013 277.922 447.096 279.047 443.325 285.863C439.07 293.552 450.755 295.991 450.22 300.291C448.906 310.918 449.34 310.092 454.028 311.923C470.455 318.345 501.769 308.147 519.488 311.381C532.902 313.841 543.887 288.135 569.238 281.889C575.235 280.416 569.315 254.877 590.552 249.201C607.244 244.74 610.522 222.785 606.567 206.738C604.336 197.671 597.761 185.075 589.652 177.186C580.441 178.405 571.35 181.309 562.807 185.319C542.59 194.768 472.229 249.509 441.978 258.049C440.42 261.57 442.865 267.609 445.722 272.406Z" fill="#9D5C4C"/>
<path d="M591.633 267.033C568.245 300.344 585.095 360.279 593.252 373.456C596.31 378.394 582.505 379.15 583.452 393.673C593.846 394.567 599.38 394.235 609.043 393.673C619.334 387.85 670.96 287.34 666.886 250.968L591.633 267.033Z" fill="#DD5D4F"/>
<path d="M593.252 373.456C590.294 368.674 586.766 360.165 584.584 349.686C589.378 342.417 603.872 341.424 612.237 342.269C621.368 343.191 630.022 345.66 634.065 353.321C623.28 374.855 613.041 391.414 609.043 393.673C599.38 394.235 593.846 394.567 583.452 393.673C582.505 379.15 596.309 378.394 593.252 373.456Z" fill="#F9D3E0"/>
<path d="M584.607 392.699C584.558 392.428 584.536 392.153 584.536 391.882C584.537 391.207 584.667 390.535 584.875 389.875C585.189 388.889 585.682 387.936 586.248 387.1C586.817 386.262 587.451 385.544 588.105 385.032C588.497 384.727 589.063 384.798 589.368 385.189C589.673 385.581 589.603 386.148 589.211 386.453C588.913 386.684 588.568 387.027 588.232 387.44C587.727 388.059 587.24 388.839 586.891 389.632C586.539 390.421 586.333 391.229 586.335 391.882C586.335 392.058 586.35 392.224 586.377 392.375C586.466 392.866 586.141 393.334 585.653 393.424C585.164 393.51 584.696 393.186 584.607 392.699Z" fill="#B993A0"/>
<path d="M590.814 393.109C590.757 392.795 590.731 392.477 590.731 392.166C590.734 390.92 591.134 389.715 591.714 388.657C592.299 387.6 593.065 386.688 593.895 386.037C594.288 385.732 594.853 385.803 595.158 386.194C595.463 386.589 595.393 387.153 595 387.458C594.399 387.924 593.756 388.676 593.29 389.524C592.82 390.375 592.528 391.321 592.53 392.166C592.53 392.379 592.548 392.585 592.585 392.786C592.673 393.276 592.349 393.744 591.86 393.834C591.372 393.92 590.904 393.596 590.814 393.109Z" fill="#B993A0"/>
<path d="M168.809 104.424C168.809 104.424 169.173 104.619 169.84 104.985C170.714 105.46 171.854 106.067 173.42 106.811C174.99 107.555 176.966 108.437 179.478 109.288C181.991 110.127 185.068 110.966 188.843 111.253C192.577 111.551 197.134 111.123 201.426 109.412C203.563 108.573 205.589 107.46 207.418 106.168C219.277 97.7564 223.121 80.8397 222.991 67.0985C222.922 59.1086 226.187 51.2731 233.19 47.0624C237.191 44.6563 246.089 43.0664 243.553 36.3735C240.851 29.2267 230.773 34.144 226.352 36.5434C224.116 37.7554 221.547 39.0793 219.606 40.7161C210.775 48.1693 210.111 52.2414 205.453 65.0882C203.118 71.6334 202.709 79.0441 199.207 85.1958C194.795 92.9486 186.996 85.8353 181.685 82.7315C175.94 79.375 168.596 80.3321 164.56 85.9248C160.486 91.5801 161.765 99.4715 167.42 103.555C167.845 103.862 168.288 104.14 168.739 104.385L168.809 104.424Z" fill="#DD5D4F"/>
<path d="M0.167 221.608C0.579445 216.951 1.84578 212.116 4.082 207.789C4.62978 206.706 5.24845 205.663 5.90256 204.657C6.21834 204.143 6.576 203.665 6.91111 203.175C7.26234 202.676 7.69733 202.119 8.09689 201.605L9.11834 200.404L10.5007 198.897C11.4416 197.98 12.3921 197.13 13.3556 196.402C17.2126 193.482 21.047 191.769 24.7268 190.441C28.4324 189.135 31.9188 188.276 35.4633 187.724C37.1131 187.461 38.8499 187.322 40.4287 187.157C41.9754 187.082 43.5156 186.943 44.9076 186.932C47.7335 186.848 50.263 186.859 52.4638 186.91C54.6291 186.957 56.5173 187 58.0737 187.034C59.5237 187.073 60.6901 187.097 61.5472 187.084C62.3818 187.082 62.8297 187.082 62.8297 187.082H62.8587C65.807 187.069 68.3816 189.244 68.7972 192.248C69.2419 195.524 66.9573 198.541 63.6803 198.987C63.6803 198.987 63.2421 199.047 62.414 199.16C61.6149 199.28 60.3421 199.432 58.6955 199.614C57.136 199.783 55.2606 199.995 53.0953 200.239C50.9783 200.488 48.6293 200.762 46.1482 201.134C44.8819 201.299 43.6703 201.569 42.3653 201.787C41.1118 202.085 39.8906 202.31 38.5631 202.706C36.1432 203.43 33.4333 204.404 30.978 205.631C28.5097 206.841 26.18 208.361 24.643 209.905C24.2531 210.288 23.9535 210.663 23.6699 211.014C23.5668 211.192 23.4508 211.358 23.338 211.519C23.2736 211.603 23.3251 211.536 23.3767 211.47C23.4186 211.416 23.4605 211.363 23.4444 211.386L23.4186 211.421L23.3799 211.491L23.2865 211.63L23.1125 211.911C23.0029 212.089 22.8515 212.311 22.7774 212.446L22.1297 213.885C21.9074 214.422 21.7044 214.956 21.5465 215.504C20.2286 219.801 20.815 224.619 22.5776 229.278C23.0384 230.514 23.5797 231.719 24.1661 232.884C25.5839 234.843 27.2434 236.832 28.0683 237.916C29.95 240.395 32.9757 241.761 35.5213 243.641C35.0476 243.751 34.4354 244.23 33.8199 244.301C37.0003 245.883 41.0442 246.761 44.5145 247.765C43.6639 248.011 41.969 249.103 41.1699 249.375C44.9205 251.078 47.1922 255.236 51.1104 256.983C50.5014 257.182 49.3962 257.09 48.3683 256.998C47.6852 256.938 47.0407 256.878 46.5864 256.902C49.683 260.445 50.3822 261.54 51.22 263.811C52.1544 266.349 52.5604 271.862 51.9031 274.663C51.3166 273.75 49.3608 270.935 48.4102 270.537C46.8474 274.922 49.1449 278.331 51.4294 282.639C47.8012 281.487 46.0902 279.836 43.0967 278.067C42.4233 279.007 42.5038 281.506 42.1977 282.639C40.8734 281.513 37.5835 278.47 36.8875 277.104C35.9305 277.894 37.039 280.166 35.7339 281.613C33.9392 280.078 29.3862 277.479 27.3562 275.883C27.2112 276.733 27.5882 278.973 27.3562 279.784C21.3789 276.984 18.321 272.164 15.015 266.661C14.29 267.226 12.8143 268.633 11.8218 268.835C11.216 264.396 8.21291 259.467 7.26235 255.191C6.93046 255.974 6.40202 258.736 5.79623 259.362C3.22812 254.872 3.47298 246.727 2.67709 241.584C1.99721 239.46 1.39789 237.239 0.933884 234.895C0.131546 230.775 -0.242226 226.276 0.167 221.608Z" fill="#DD5D4F"/>
<path d="M6.70446 242.612C8.61837 243.777 11.8788 242.284 12.4558 242.222C15.4982 241.892 15.62 239.464 18.0373 237.595C20.6693 235.559 25.0294 238.676 27.8185 237.595C27.905 237.706 27.9948 237.82 28.0717 237.916C29.9504 240.395 32.9767 241.762 35.5222 243.642C35.0478 243.751 34.4354 244.228 33.8231 244.301C37.0033 245.884 41.046 246.761 44.5147 247.765C43.6652 248.012 41.9725 249.104 41.171 249.376C44.9251 251.078 47.1949 255.236 51.1125 256.983C50.1026 257.313 47.7239 256.842 46.589 256.902C49.6859 260.446 50.3847 261.54 51.2247 263.812C52.1576 266.349 52.5615 271.863 51.9075 274.663C51.3176 273.751 49.362 270.935 48.4131 270.537C46.8518 274.922 49.1473 278.331 51.4299 282.639C47.8008 281.487 46.0921 279.836 43.101 278.068C42.4245 279.008 42.5047 281.506 42.1969 282.639C40.8761 281.513 37.5868 278.47 36.8879 277.104C35.9294 277.894 37.0418 280.166 35.737 281.613C33.9417 280.078 29.3862 277.479 27.36 275.884C27.2126 276.734 27.5909 278.974 27.36 279.785C21.3778 276.984 18.3226 272.164 15.0174 266.662C14.2928 267.227 12.8181 268.634 11.8243 268.835C11.2184 264.396 8.21443 259.467 7.26549 255.191C6.93208 255.975 6.40311 258.737 5.7972 259.362C3.22928 254.872 3.47614 246.727 2.67787 241.584C2.5849 241.297 2.50796 240.995 2.4214 240.704C4.03717 240.334 4.67513 241.374 6.70446 242.612Z" fill="#9D5C4C"/>
<path d="M145.503 193.034C146.181 205.702 140.136 221.232 120.668 232.094C117.861 233.663 114.714 235.004 113.506 238.284C112.354 241.402 113.12 245.136 116.409 246.611C118.83 247.697 132.773 246.132 132.407 250.887C132.139 254.341 123.989 253.945 117.325 253.921C116.752 253.919 116.149 253.925 115.536 253.93C112.202 253.964 108.489 253.996 106.532 252.598C103.342 250.32 101.831 243.721 99.7636 240.573C96.5899 235.743 94.9454 230.557 88.4211 226.379L145.503 193.034Z" fill="#CD5649"/>
<path d="M56.8811 213.149C58.9344 218.162 62.9204 224.084 64.0404 229.523C65.0456 234.385 61.4185 248.052 63.3483 252.294C64.8043 255.5 70.7891 254.93 74.8154 254.795C82.2016 254.544 79.7031 249.663 76.145 246.669C73.4053 244.359 77.3569 237.439 86.8194 231.508C93.6428 227.23 104.53 229.767 115.445 222.313L56.8811 213.149Z" fill="#DD5D4F"/>
<path d="M147.274 36.8491C154.092 37.6176 160.289 40.5728 164.471 42.3991C172.649 45.9774 187.94 66.9099 188.038 96.3749C188.143 131.394 173.669 162.946 153.235 190.435C132.826 215.18 120.698 223.445 99.316 226.068C87.1267 228.265 66.5759 226.184 58.284 215.262C51.2448 205.999 53.1368 192.105 55.5201 182.517C56.8919 177.02 59.2751 171.71 62.2861 166.806C69.4009 155.194 107.413 116.299 114.662 98.5486C115.127 97.4244 115.467 96.385 115.661 95.435C118.335 82.7345 119.259 69.6326 118.768 62.2318C117.966 50.1158 136.372 35.6154 147.274 36.8491Z" fill="#DD5D4F"/>
<path d="M56.9756 213.378C56.9467 213.311 56.9206 213.247 56.8946 213.183C56.7933 213.01 56.6921 212.836 56.5966 212.66C56.7181 212.885 56.8454 213.127 56.9756 213.378ZM53.9755 205.138C53.9755 205.138 53.9755 205.136 53.9726 205.134C53.9755 205.136 53.9755 205.138 53.9755 205.138ZM53.9726 205.117C53.9697 205.113 53.9697 205.104 53.9668 205.1C53.9697 205.104 53.9697 205.113 53.9726 205.117ZM53.9668 205.091C53.6659 203.488 53.4865 201.852 53.4084 200.203C53.4865 201.85 53.6659 203.488 53.9668 205.091ZM54.5367 186.956C54.8376 185.403 55.1732 183.915 55.5204 182.517C55.1732 183.915 54.8376 185.403 54.5367 186.956Z" fill="#EEECDE"/>
<path d="M53.4063 200.203C53.1951 195.682 53.7334 191.092 54.5352 186.955C53.7334 191.092 53.1951 195.682 53.4063 200.203Z" fill="#E7874B"/>
<path d="M179.002 144.508C181.372 138.539 183.248 132.757 184.659 126.923C184.578 126.943 184.496 126.965 184.417 126.989C182.989 132.949 181.167 138.79 179.002 144.508Z" fill="#EEECDE"/>
<path d="M94.0825 229.017C95.5814 228.818 97.1199 228.563 98.6981 228.248C97.0961 228.51 95.5523 228.741 94.0825 229.017ZM98.7087 228.246C101.307 228.038 104.271 227.347 107.134 226.356C104.218 227.297 101.381 227.814 98.7087 228.246ZM113.499 223.54C114.11 223.202 114.689 222.85 115.231 222.495C117.668 221.564 119.894 220.482 121.813 219.435C119.733 220.544 117.618 221.499 115.437 222.319C114.789 222.76 114.144 223.165 113.499 223.54ZM128.364 215.361C128.39 215.343 128.417 215.326 128.443 215.309C128.441 215.309 128.438 215.309 128.435 215.311C128.412 215.328 128.388 215.343 128.364 215.361Z" fill="#DC7342"/>
<path d="M86.4305 229.548C88.86 229.546 91.41 229.373 94.0836 229.017C95.551 228.741 97.096 228.51 98.6984 228.249C98.7013 228.249 98.7041 228.249 98.707 228.249V228.247C101.383 227.814 104.221 227.298 107.133 226.356C109.395 225.572 111.595 224.604 113.499 223.54C114.145 223.165 114.791 222.761 115.438 222.32C110.53 224.165 105.286 225.337 99.3187 226.069C96.5303 226.572 93.3025 226.85 89.8852 226.85C78.3668 226.85 64.6803 223.686 58.285 215.262C57.7739 214.592 57.3144 213.898 56.8951 213.183C56.921 213.247 56.9497 213.312 56.9755 213.378C57.3804 214.159 57.794 215.022 58.0352 215.697C64.1778 224.649 73.5768 229.548 86.4305 229.548Z" fill="#CD5649"/>
<path d="M89.8852 226.85C93.3035 226.85 96.5307 226.572 99.318 226.068C105.283 225.336 110.528 224.165 115.437 222.319C117.619 221.499 119.732 220.544 121.813 219.435C124.991 217.701 127.324 216.065 128.363 215.36C128.389 215.343 128.412 215.328 128.436 215.311C126.47 215.774 124.534 215.964 122.606 215.964C117.585 215.964 112.65 214.656 107.596 213.401C97.7522 210.96 92.9185 203.672 86.9648 196.09C81.4538 189.064 78.1687 183.647 77.5898 174.438C76.9791 164.779 79.8475 154.687 84.6058 146.351C89.6826 137.464 102.609 121.772 114.762 121.772C117.967 121.772 121.119 122.863 124.059 125.456C126.887 127.955 128.635 131.884 130.685 134.977C134.586 140.874 140.332 145.213 147.075 147.246C150.204 148.189 153.872 148.585 157.649 148.585C165.591 148.585 174.016 146.83 178.917 144.719C178.946 144.648 178.975 144.578 179.001 144.508C181.166 138.79 182.989 132.949 184.416 126.989C183.782 127.18 183.183 127.495 182.613 127.81C181.707 128.313 180.87 128.816 180.1 128.816C179.108 128.816 178.219 127.99 177.394 125.278C174.54 128.389 173.096 129.804 171.067 129.804C170.445 129.804 169.768 129.671 168.977 129.413C167.481 128.924 167.964 126.875 165.796 126.508C165.767 126.503 165.736 126.501 165.704 126.501C164.508 126.501 161.683 129.803 158.963 129.803C156.876 129.803 156.193 126.281 155.993 124.731C153.556 126.193 151.999 126.895 150.838 126.895C148.992 126.895 148.149 125.113 146.332 121.783C144.997 123.292 143.923 123.848 142.997 123.848C140.595 123.848 139.162 120.115 136.633 119.601C136.511 119.576 136.386 119.565 136.271 119.565C135.284 119.565 134.41 120.372 133.564 121.18C132.722 121.988 131.912 122.796 131.046 122.796C130.537 122.796 130.01 122.514 129.446 121.783C128.259 119.902 127.272 119.33 126.326 119.33C125.59 119.33 124.881 119.676 124.123 120.022C123.368 120.367 122.563 120.712 121.64 120.712C121.124 120.712 120.572 120.605 119.972 120.33C119.408 119.33 117.582 115.932 117.475 114.415C117.156 114.499 116.858 114.54 116.58 114.54C113.553 114.54 112.742 109.761 113.796 103.933C113.388 104.306 113.003 104.471 112.652 104.471C112.349 104.471 112.071 104.346 111.822 104.127C100.484 123.429 68.7272 156.295 62.2872 166.806C59.277 171.71 56.892 177.02 55.5201 182.517C55.1727 183.915 54.837 185.403 54.536 186.955C53.7342 191.092 53.1959 195.683 53.4072 200.203C53.4882 201.852 53.6648 203.487 53.9658 205.091C53.9658 205.093 53.9658 205.096 53.9658 205.1C53.9687 205.104 53.9687 205.113 53.9716 205.117C53.9745 205.123 53.9745 205.128 53.9745 205.134C53.9745 205.136 53.9745 205.138 53.9745 205.138C54.4665 207.734 55.2856 210.234 56.5331 212.538C56.5534 212.579 56.5736 212.62 56.5968 212.66C56.6923 212.836 56.7936 213.009 56.8949 213.183C57.3146 213.898 57.7748 214.592 58.2842 215.262C64.6779 223.685 78.3655 226.85 89.8852 226.85Z" fill="#CD5649"/>
<path d="M118.475 75.9907C118.543 75.9458 118.61 75.9034 118.68 75.8585C118.62 75.7937 118.56 75.7288 118.5 75.664C118.493 75.7712 118.483 75.881 118.475 75.9907Z" fill="#E7874B"/>
<path d="M184.027 72.4543C187.432 72.9546 195.476 81.3534 195.108 90.0109C194.536 90.0766 193.667 89.734 192.82 89.3915C191.946 89.0387 191.095 88.6857 190.602 88.779C192.299 91.5746 197.304 94.8556 196.085 98.6886C195.259 99.6078 192.549 98.085 191.816 97.7854C193.787 102.474 198.207 104.918 197.672 108.666C197.486 109.858 195.116 110.651 194.416 110.066C195.055 114.118 195.842 118.139 195.341 122.383C193.927 121.577 193.002 122.259 191.609 120.808C191.78 124.052 191.437 127.194 189.571 129.413C186.813 125.677 184.543 126.744 182.616 127.811C180.54 128.958 178.86 130.105 177.396 125.279C173.666 129.343 172.344 130.513 168.98 129.413C167.48 128.924 167.965 126.876 165.798 126.509C164.66 126.32 161.759 129.804 158.965 129.804C156.879 129.804 156.196 126.281 155.997 124.731C149.667 128.523 149.289 127.203 146.331 121.783C141.538 127.207 140.14 120.314 136.633 119.602C135.495 119.371 134.511 120.276 133.568 121.181C132.225 122.466 130.963 123.751 129.447 121.783C127.34 118.442 125.855 119.232 124.124 120.022C122.946 120.56 121.653 121.098 119.973 120.331C119.408 119.331 117.583 115.932 117.476 114.416C113.718 115.414 112.644 110.3 113.797 103.934C110.921 106.558 109.272 98.8598 111.956 96.2235C108.301 94.6596 109.436 91.1058 112.925 89.81C112.327 89.2259 110.338 89.0807 110.382 87.5371C110.558 86.0642 113.897 83.4258 115.827 82.2169C113.398 77.5933 119.344 75.9629 121.757 73.7647L184.027 72.4543Z" fill="#9D5C4C"/>
<path d="M148.613 88.1812C149.769 88.1809 150.913 88.1536 152.031 88.1017C164.553 87.5255 181.486 85.5215 190.196 77.1784C190.086 77.0415 189.973 76.9071 189.86 76.7747C182.794 81.9708 171.29 83.6039 159.997 84.3581C155.584 84.9228 151.216 85.2477 147.024 85.2477C135.362 85.2477 125.026 82.7333 118.682 75.862C117.785 76.4382 116.91 77.0545 116.273 77.7731C124.916 85.6414 137.488 88.1812 148.613 88.1812Z" fill="#B96D5A"/>
<path d="M171.717 24.5386C170.758 16.7448 165.468 0.571629 163.019 -0.000221252C160.476 0.0182266 150.983 15.3244 149.129 22.0829C153.252 22.7446 155.7 22.6363 159.996 23.079L171.717 24.5386Z" fill="#CD5649"/>
<path d="M112.659 57.7728C113.508 63.5025 114.663 71.3043 118.318 75.4589C126.851 85.1669 143.072 86.5247 159.998 84.3595C180.498 81.7378 199.68 80.0538 195.485 54.4008C193.828 51.0466 191.84 48.4392 188.881 47.096C180.498 22.829 166.059 14.3467 144.096 19.1104C122.133 23.8715 109.53 36.5007 112.659 57.7728Z" fill="#DD5D4F"/>
<path d="M149.092 72.1775C148.089 68.8525 148.644 62.4315 150.577 59.6591C154.968 53.3698 165.003 54.0473 170.383 54.7225C172.476 54.9861 173.866 55.2497 173.944 55.104C176.277 50.8195 183.88 47.5245 188.881 47.0968C191.94 48.1673 194.565 51.3698 195.487 54.4011C202.352 78.5916 180.825 82.9686 159.999 84.3606C156.616 84.5872 150.822 77.9233 149.092 72.1775Z" fill="#F9D3E0"/>
<path d="M186.107 60.4739C186.178 60.8613 186.213 61.2422 186.213 61.6102C186.215 63.2328 185.546 64.6359 184.524 65.6216C183.499 66.6094 182.122 67.1904 180.686 67.1904C179.341 67.1926 177.947 66.6718 176.789 65.5183C175.629 64.3626 174.706 62.5894 174.235 60.0887C174.198 59.8907 174.329 59.6991 174.527 59.6626C174.725 59.6238 174.917 59.7551 174.953 59.9531C175.403 62.3462 176.275 63.9753 177.306 64.9996C178.334 66.0218 179.526 66.4566 180.686 66.4587C181.924 66.4609 183.125 65.9551 184.016 65.0965C184.904 64.2357 185.479 63.0305 185.481 61.6102C185.481 61.2874 185.453 60.9517 185.389 60.6052C185.352 60.4072 185.481 60.2178 185.681 60.1791C185.881 60.1425 186.071 60.2737 186.107 60.4739Z" fill="#A36032"/>
<path d="M165.647 66.7236C165.908 67.5918 166.447 68.2502 167.151 68.703C167.856 69.1537 168.733 69.3923 169.637 69.3923C170.885 69.3923 172.177 68.9372 173.154 67.9961C174.13 67.0528 174.808 65.6235 174.81 63.5977C174.81 62.5903 174.64 61.4349 174.247 60.1293C174.188 59.9349 174.3 59.7316 174.492 59.6742C174.685 59.6145 174.89 59.725 174.947 59.9172C175.358 61.2824 175.544 62.5063 175.544 63.5977C175.546 65.7869 174.791 67.4394 173.662 68.5219C172.535 69.6066 171.059 70.1235 169.637 70.1235C168.605 70.1235 167.595 69.854 166.758 69.3194C165.921 68.7848 165.258 67.9762 164.947 66.9335C164.887 66.7413 164.997 66.5358 165.192 66.4784C165.386 66.421 165.589 66.5314 165.647 66.7236Z" fill="#A36032"/>
<path d="M168.795 56.1163C168.618 58.2151 172.394 59.8177 173.386 60.1915C174.783 60.7272 175.568 60.7425 176.699 59.5488C177.65 58.5518 179.633 54.8417 178.502 53.4403C176.666 51.1622 168.935 54.4547 168.795 56.1163Z" fill="#F47164"/>
<path d="M172.372 55.4092C172.923 55.4092 173.654 55.1879 173.941 55.1011C174.676 54.8907 175.388 54.6542 176.136 54.3982C176.618 54.2355 177.497 53.6237 176.59 53.4371C176.44 53.4046 176.286 53.3916 176.128 53.3916C175.746 53.3916 175.349 53.4675 174.963 53.5304C174.318 53.6389 173.694 53.8016 173.08 54.0359C172.774 54.1509 171.361 54.7605 171.793 55.2356C171.908 55.3615 172.121 55.4092 172.372 55.4092Z" fill="#F79989"/>
<path d="M150.966 51.3371C151.188 50.5705 151.523 49.9049 151.939 49.3425C152.561 48.5002 153.373 47.8965 154.25 47.5132C155.131 47.1299 156.077 46.96 157.011 46.96C158.186 46.96 159.343 47.2286 160.337 47.7106C160.831 47.9539 161.287 48.2523 161.682 48.6034C162.077 48.9569 162.412 49.3655 162.651 49.8314C162.834 50.1895 162.694 50.6302 162.334 50.8161C161.976 51.002 161.535 50.8597 161.349 50.5016C161.205 50.2193 160.987 49.9462 160.707 49.696C160.287 49.3173 159.722 48.9959 159.079 48.771C158.439 48.5483 157.725 48.4221 157.011 48.4221C156.004 48.4221 155.01 48.67 154.195 49.1979C153.789 49.4619 153.424 49.797 153.114 50.2147C152.806 50.6325 152.549 51.1351 152.37 51.748C152.258 52.1359 151.852 52.3585 151.464 52.2437C151.076 52.1313 150.853 51.725 150.966 51.3371Z" fill="#A36032"/>
<path d="M185.171 42.9581C184.657 42.2965 184.092 41.8541 183.497 41.5705C182.902 41.2848 182.273 41.1581 181.631 41.1581C181.001 41.1581 180.361 41.2827 179.753 41.5061C178.84 41.8412 178.001 42.3997 177.393 43.0462C177.09 43.3706 176.843 43.7143 176.664 44.0579C176.49 44.3995 176.383 44.741 176.351 45.0632C176.308 45.4649 175.947 45.757 175.547 45.7141C175.146 45.6733 174.852 45.3145 174.894 44.9129C174.968 44.204 175.24 43.5295 175.64 42.9173C176.239 41.998 177.124 41.2054 178.162 40.6297C179.199 40.0562 180.398 39.6953 181.631 39.6953C182.468 39.6953 183.321 39.865 184.129 40.2495C184.937 40.634 185.691 41.2354 186.328 42.0646C186.578 42.3846 186.518 42.8443 186.197 43.0913C185.877 43.3383 185.418 43.2782 185.171 42.9581Z" fill="#A36032"/>
<path d="M120.024 43.8623C117.026 36.1268 112.524 15.9417 114.52 14.1831C116.902 12.9356 136.128 24.7147 141.231 30.0817C141.042 29.8818 138.59 35.2235 133.468 38.7003C129.073 41.6811 123.319 43.8623 120.024 43.8623Z" fill="#DD5D4F"/>
<path d="M115.161 25.9118C115.222 26.2798 115.295 26.6604 115.368 27.0384C116.449 32.6136 118.282 39.2877 119.696 43.0054C121.384 42.8163 122.829 42.5517 124.19 42.156C125.858 41.6721 127.396 41.0319 129.036 40.122C130.718 39.1869 133.125 37.6898 134.337 36.1851C134.894 35.497 137.578 32.8934 136.671 31.6559C132.552 26.0756 117.037 16.7803 114.884 17.7884L114.854 17.8036C114.826 17.8313 114.781 17.8767 114.751 17.9245C114.151 18.784 114.428 21.9749 115.161 25.9118Z" fill="#F9D3E0"/>
<path d="M119.699 43.0059C119.702 43.0059 119.704 43.0059 119.704 43.0059C121.388 42.8169 122.834 42.5522 124.19 42.1566L124.248 42.0986C122.192 40.1103 119.979 35.6473 118.996 33.16C116.859 27.757 116.232 23.7325 114.904 18.0574C114.873 17.9692 114.886 17.8784 114.886 17.7902L114.856 17.8054C114.828 17.8356 114.783 17.8785 114.753 17.9263C114.213 18.8184 114.478 21.9483 115.163 25.9149C115.224 26.2803 115.299 26.6633 115.37 27.0388C116.451 32.6157 118.283 39.2888 119.699 43.0059Z" fill="#EBC5D2"/>
<path d="M127.88 111.868C127.88 111.868 127.91 112.238 127.961 112.93C128.017 113.825 128.107 114.986 128.297 116.542C128.497 118.104 128.784 120.038 129.354 122.368C129.937 124.691 130.792 127.447 132.402 130.462C133.993 133.458 136.532 136.728 139.919 139.166C141.592 140.385 143.432 141.396 145.303 142.158C154.242 145.842 163.652 142.153 172.135 138.98C174.869 137.961 177.537 136.945 180.102 136.028C182.151 135.294 187.146 134.296 188.06 133.232C192.667 135.671 194.672 141.29 197.004 145.627C198.149 147.747 198.77 149.018 198.77 149.018C200.022 151.579 203.117 152.643 205.685 151.392C207.985 150.265 209.081 147.66 208.374 145.282L208.353 145.21C208.353 145.21 207.931 143.784 207.071 141.261C206.191 138.743 204.925 135.119 202.62 130.749C196.424 118.988 187.738 118.024 175.68 120.709C172.783 121.371 169.935 122.082 167.146 122.761C162.874 123.794 158.638 125.257 154.186 125.152C154.43 125.152 154.676 125.189 154.924 125.195C149.24 122.957 150.861 115.922 150.68 111.154C150.449 105.143 146.153 100.007 139.931 99.6473C133.633 99.2835 128.236 104.09 127.873 110.383C127.846 110.863 127.846 111.331 127.875 111.796L127.88 111.868Z" fill="#DD5D4F"/>
<path d="M206.122 149.477C206.157 149.291 206.176 149.053 206.176 148.791C206.178 148.214 206.08 147.52 205.898 146.949C205.805 146.663 205.694 146.408 205.572 146.215C205.45 146.021 205.322 145.896 205.221 145.84C204.99 145.71 204.908 145.419 205.039 145.189C205.167 144.96 205.459 144.878 205.688 145.008C205.983 145.175 206.202 145.425 206.381 145.708C206.647 146.134 206.827 146.648 206.949 147.186C207.071 147.723 207.131 148.281 207.131 148.791C207.131 149.1 207.109 149.39 207.06 149.653C207.011 149.912 206.763 150.082 206.503 150.034C206.244 149.985 206.073 149.736 206.122 149.477Z" fill="#B0493E"/>
<path d="M203.35 150.794C203.384 150.609 203.406 150.372 203.403 150.112C203.406 149.534 203.307 148.84 203.125 148.268C203.033 147.981 202.922 147.726 202.8 147.533C202.678 147.338 202.549 147.212 202.448 147.156C202.219 147.026 202.138 146.734 202.269 146.505C202.397 146.275 202.688 146.195 202.917 146.325C203.213 146.493 203.431 146.743 203.609 147.026C203.874 147.453 204.054 147.968 204.176 148.505C204.298 149.043 204.358 149.602 204.358 150.112C204.358 150.419 204.337 150.709 204.288 150.97C204.241 151.23 203.99 151.4 203.731 151.352C203.472 151.303 203.301 151.054 203.35 150.794Z" fill="#B0493E"/>
<path d="M74.1662 253.831C74.2437 253.617 74.3102 253.33 74.3545 253.011C74.4016 252.692 74.4266 252.339 74.4266 251.983C74.4266 251.435 74.3656 250.88 74.241 250.435C74.18 250.212 74.1053 250.018 74.0194 249.865C73.9363 249.713 73.8476 249.609 73.7673 249.549C73.5291 249.36 73.4876 249.015 73.6731 248.778C73.8587 248.538 74.205 248.495 74.4432 248.684C74.6703 248.861 74.8448 249.088 74.9833 249.334C75.1855 249.707 75.3157 250.133 75.4016 250.585C75.4846 251.037 75.5234 251.512 75.5234 251.983C75.5234 252.39 75.4957 252.79 75.4431 253.165C75.3877 253.54 75.3102 253.889 75.2021 254.195C75.1024 254.482 74.7894 254.632 74.5013 254.531C74.216 254.431 74.0665 254.118 74.1662 253.831Z" fill="#B0493E"/>
<path d="M68.0823 254.2C67.9195 253.823 67.796 253.376 67.7091 252.892C67.6221 252.408 67.5715 251.89 67.5715 251.376C67.5743 250.853 67.6221 250.34 67.7455 249.87C67.8073 249.637 67.8886 249.414 67.9981 249.207C68.1047 248.999 68.2422 248.806 68.419 248.643C68.6435 248.44 68.9887 248.455 69.1935 248.68C69.3984 248.903 69.3843 249.25 69.157 249.455C69.0981 249.511 69.0308 249.596 68.969 249.714C68.8764 249.89 68.7979 250.138 68.7473 250.425C68.6968 250.712 68.6688 251.037 68.6688 251.376C68.6688 251.819 68.7137 252.279 68.7894 252.697C68.8652 253.117 68.9746 253.493 69.0897 253.759C69.2103 254.037 69.0841 254.361 68.8063 254.483C68.5285 254.602 68.2057 254.476 68.0823 254.2Z" fill="#B0493E"/>
</svg>
