<svg width="341" height="174" viewBox="0 0 341 174" fill="none" xmlns="http://www.w3.org/2000/svg">
<path fill-rule="evenodd" clip-rule="evenodd" d="M104.612 49.2686C107.336 45.8515 108.037 41.1451 106.696 35.2786C100.781 9.39568 82.8571 -0.000175476 72.2525 -0.000175476H49.7039C36.4526 -0.000175476 31.0454 8.41717 29.5881 14.3929L3.68517 16.576C2.58481 16.6684 1.64537 17.4084 1.29689 18.4562C1.14239 18.9224 -2.43652 29.9768 3.00729 38.3711C6.19669 43.2883 11.6748 46.1669 19.29 46.9238C42.2925 49.2132 43.2624 53.1673 43.2624 61.8939H48.7837C48.7837 47.9255 42.8326 43.7175 19.8363 41.4297C13.9862 40.8466 9.88812 38.8142 7.65415 35.3878C6.83565 34.1308 6.311 32.757 5.98345 31.3661C6.06391 31.3661 6.13961 31.3676 6.22146 31.3676C9.48179 31.3676 14.3667 30.7984 17.7635 27.8475C19.8436 26.0412 21.0672 23.5642 21.343 20.6286L32.1807 19.7162C33.5234 19.6024 34.5877 18.5377 34.7007 17.1945C34.7404 16.7176 35.8372 5.52318 49.7039 5.52318H72.2525C80.7507 5.52318 96.1535 13.9344 101.313 36.5079C102.261 40.6543 101.918 43.7899 100.295 45.8254C98.2456 48.3963 93.9207 49.6994 87.4384 49.6994C74.0351 49.6994 73.6343 19.6301 73.6337 19.3254L68.1111 19.327C68.1111 20.7933 68.3311 55.2212 87.4384 55.2212C92.0397 55.2212 95.8042 54.6273 98.7972 53.4303C101.659 57.5181 105.237 62.7757 109.013 68.5641H115.645C110.752 60.9872 106.262 54.461 103.483 50.4933C103.886 50.1071 104.266 49.7025 104.612 49.2686ZM5.56635 25.8289C8.14341 25.8904 11.9987 25.5489 14.1503 23.6718C14.919 23.0026 15.4213 22.1533 15.678 21.1071L6.09884 21.9148C5.88606 22.9133 5.65881 24.2826 5.56635 25.8289Z" fill="#161B1B"/>
<path d="M43.2624 61.8939H48.7837V84.4932H43.2624V61.8939Z" fill="#161B1B"/>
<path d="M39.9258 107.008V111.734C39.9258 113.261 41.1614 114.496 42.6861 114.496C44.2114 114.496 45.4472 113.261 45.4472 111.734V107.008C45.4472 105.483 44.2114 104.248 42.6861 104.248C41.1614 104.248 39.9258 105.483 39.9258 107.008Z" fill="#161B1B"/>
<path d="M39.9258 14.6023V19.3272C39.9258 20.8519 41.1614 22.0889 42.6861 22.0889C44.2114 22.0889 45.4472 20.8519 45.4472 19.3272V14.6023C45.4472 13.0776 44.2114 11.8406 42.6861 11.8406C41.1614 11.8406 39.9258 13.0776 39.9258 14.6023Z" fill="#161B1B"/>
<path d="M58.5143 74.051L55.2263 73.4125V90.5673H49.7038C43.4409 90.5673 31.9492 94.1136 30.5231 107.133H24.4446L24.0503 107.253C23.7546 107.342 16.8018 109.591 16.8018 121.169C16.8018 129.199 22.9127 137.505 33.1386 137.505C35.5124 137.505 41.3198 137.918 43.9697 141.736C46.1278 144.849 45.9921 149.794 43.5646 156.44C43.3627 156.726 43.0616 157.174 42.7094 157.752H48.9532C51.8144 149.597 51.6715 143.15 48.5071 138.588C44.5195 132.84 37.1664 131.982 33.1386 131.982C26.1141 131.982 22.3244 126.411 22.3244 121.169C22.3244 115.095 24.6285 113.156 25.4591 112.656H35.8995V109.893C35.8995 96.5753 48.3005 96.0999 49.7038 96.0891H60.7489V80.7868C64.5177 82.7115 70.8816 87.2379 76.5033 97.3846C84.3703 111.582 88.3591 131.894 88.3591 157.752H93.3822H93.881C93.881 130.948 89.6597 109.736 81.3329 94.7075C71.3774 76.7374 59.0354 74.1526 58.5143 74.051Z" fill="#161B1B"/>
<path d="M110.838 74.9411H124.926C129.749 74.9411 133.343 75.6439 135.707 77.0495C138.071 78.4231 139.253 80.8988 139.253 84.4767C139.253 88.4379 137.816 91.1692 134.94 92.6706C132.257 94.0442 128.504 94.7311 123.68 94.7311H123.296V107.573H129.286V108.483H110.838V107.573H113.953V75.8515H110.838V74.9411ZM123.296 75.8515V93.8206H124.303C126.219 93.8206 127.545 93.1657 128.28 91.856C129.015 90.5463 129.382 88.4219 129.382 85.483V83.1829C129.382 80.4676 129.031 78.5669 128.328 77.4807C127.657 76.3946 126.411 75.8515 124.59 75.8515H123.296ZM180.151 108.963C176.031 108.963 172.932 107.908 170.855 105.8C168.811 103.66 167.789 100.705 167.789 96.9353C167.789 93.1338 168.939 90.2268 171.239 88.2143C173.571 86.2017 176.526 85.1955 180.104 85.1955C187.355 85.1955 190.837 88.8372 190.55 96.1207H177.037V97.9894C177.037 101.12 177.436 103.484 178.235 105.081C179.033 106.679 180.423 107.477 182.404 107.477C186.109 107.477 188.537 105.497 189.687 101.535L190.55 101.679C189.943 103.979 188.84 105.768 187.243 107.046C185.678 108.324 183.314 108.963 180.151 108.963ZM177.085 95.1623H182.02V92.8144C182.02 90.2268 181.86 88.4698 181.541 87.5434C181.254 86.5851 180.647 86.1059 179.72 86.1059C178.826 86.1059 178.155 86.617 177.708 87.6393C177.292 88.6295 177.085 90.3546 177.085 92.8144V95.1623ZM222.684 101.631V86.5371H220.049V85.6746H222.684V79.4933L231.597 77.2891V85.6746H237.826V86.5371H231.597V102.685C231.597 104.187 231.741 105.289 232.028 105.992C232.348 106.694 232.987 107.046 233.945 107.046C234.903 107.046 235.734 106.567 236.437 105.608C237.171 104.65 237.651 103.34 237.874 101.679L238.689 101.775C238.433 103.979 237.73 105.736 236.58 107.046C235.43 108.324 233.53 108.963 230.878 108.963C228.227 108.963 226.198 108.435 224.793 107.381C223.387 106.327 222.684 104.41 222.684 101.631ZM281.697 72.2577C280.483 72.2577 279.685 72.7209 279.302 73.6473C278.918 74.5418 278.727 75.9953 278.727 78.0078V85.6746H285.052V86.5371H278.727V107.621H284.572V108.483H267.178V107.621H269.814V86.5371H267.035V85.6746H269.814V85.483C269.814 80.8829 270.692 77.4009 272.449 75.0369C274.206 72.641 277.145 71.4431 281.266 71.4431C283.981 71.4431 285.93 71.9862 287.112 73.0723C288.294 74.1265 288.885 75.3564 288.885 76.762C288.885 78.1675 288.518 79.2217 287.783 79.9245C287.048 80.6273 286.074 80.9787 284.86 80.9787C283.646 80.9787 282.704 80.6752 282.033 80.0683C281.394 79.4294 281.074 78.7106 281.074 77.912C281.074 77.0814 281.17 76.2828 281.362 75.5161H283.183C283.822 73.3438 283.327 72.2577 281.697 72.2577ZM313.314 86.5371V85.6746H327.21V86.5371H324.623L329.846 102.446L335.404 86.5371H332.194V85.6746H338.95V86.5371H336.554L327.593 112.365C326.539 115.368 325.357 117.46 324.048 118.642C322.738 119.856 321.141 120.463 319.256 120.463C317.371 120.463 315.886 120.032 314.799 119.169C313.713 118.307 313.17 117.204 313.17 115.863C313.17 114.521 313.522 113.499 314.224 112.796C314.927 112.093 315.854 111.742 317.004 111.742C319.655 111.742 320.981 112.844 320.981 115.048C320.981 115.527 320.885 116.102 320.693 116.773H319.016C318.761 117.508 318.729 118.115 318.92 118.594C319.112 119.073 319.543 119.313 320.214 119.313C321.524 119.313 322.69 118.658 323.712 117.348C324.734 116.07 325.709 114.106 326.635 111.454L327.689 108.483H323.473L315.279 86.5371H313.314Z" fill="black"/>
<path d="M119.079 143.242H118.934C118.702 143.899 118.432 144.663 118.122 145.533C117.832 146.402 117.523 147.311 117.194 148.258C116.885 149.206 116.585 150.114 116.295 150.984L115.89 152.898C115.774 153.265 115.648 153.671 115.513 154.116C115.397 154.56 115.271 155.005 115.136 155.449C115 155.894 114.865 156.319 114.73 156.725C114.614 157.112 114.517 157.45 114.44 157.74C114.227 157.818 114.005 157.885 113.773 157.943C113.56 158.001 113.289 158.03 112.961 158.03C112.304 158.03 111.791 157.905 111.424 157.653C111.057 157.383 110.873 157.006 110.873 156.522C110.873 156.29 110.902 156.068 110.96 155.855C111.037 155.623 111.124 155.362 111.221 155.073C111.414 154.435 111.666 153.632 111.975 152.666C112.304 151.699 112.661 150.655 113.048 149.534C113.454 148.413 113.86 147.292 114.266 146.171C114.672 145.03 115.058 143.967 115.426 142.981C115.793 141.995 116.102 141.173 116.353 140.516C116.605 140.381 116.982 140.245 117.484 140.11C117.987 139.975 118.48 139.907 118.963 139.907C119.659 139.907 120.287 140.014 120.848 140.226C121.409 140.419 121.766 140.748 121.921 141.212C122.327 142.256 122.752 143.464 123.197 144.837C123.661 146.209 124.134 147.64 124.618 149.128C125.101 150.617 125.555 152.067 125.98 153.478C126.425 154.87 126.812 156.126 127.14 157.247C126.966 157.46 126.705 157.634 126.357 157.769C126.009 157.924 125.603 158.001 125.139 158.001C124.463 158.001 123.98 157.885 123.69 157.653C123.419 157.402 123.206 157.015 123.052 156.493L121.921 152.753L121.486 150.81C121.215 149.863 120.925 148.925 120.616 147.997C120.307 147.05 120.017 146.171 119.746 145.359C119.495 144.527 119.272 143.822 119.079 143.242ZM114.237 153.594L115.629 150.607H122.849L123.371 153.594H114.237ZM143.826 154.667V145.62L147.479 145.591V155.073C147.479 155.498 147.383 155.855 147.189 156.145C147.015 156.435 146.725 156.696 146.319 156.928C145.855 157.238 145.218 157.518 144.406 157.769C143.594 158.04 142.675 158.175 141.651 158.175C140.104 158.175 138.761 157.914 137.62 157.392C136.499 156.851 135.629 156.049 135.011 154.986C134.392 153.903 134.083 152.55 134.083 150.926C134.083 149.225 134.392 147.843 135.011 146.779C135.629 145.697 136.47 144.895 137.533 144.373C138.616 143.851 139.805 143.59 141.1 143.59C141.815 143.59 142.463 143.677 143.043 143.851C143.642 144.005 144.116 144.208 144.464 144.46V147.562C144.154 147.292 143.758 147.05 143.275 146.837C142.791 146.605 142.221 146.489 141.564 146.489C140.849 146.489 140.201 146.644 139.621 146.953C139.061 147.263 138.616 147.746 138.287 148.403C137.959 149.041 137.794 149.892 137.794 150.955C137.794 152.424 138.133 153.507 138.809 154.203C139.505 154.879 140.443 155.218 141.622 155.218C142.125 155.218 142.55 155.16 142.898 155.044C143.265 154.928 143.574 154.802 143.826 154.667ZM147.479 146.373H143.826V138.892C143.98 138.834 144.203 138.786 144.493 138.747C144.802 138.689 145.131 138.66 145.478 138.66C146.174 138.66 146.677 138.786 146.986 139.037C147.315 139.269 147.479 139.714 147.479 140.371V146.373ZM169.934 150.868C169.934 152.356 169.644 153.652 169.064 154.754C168.484 155.836 167.662 156.677 166.599 157.276C165.536 157.876 164.28 158.175 162.83 158.175C161.399 158.175 160.143 157.885 159.06 157.305C157.997 156.706 157.175 155.855 156.595 154.754C156.015 153.652 155.725 152.356 155.725 150.868C155.725 149.36 156.015 148.065 156.595 146.982C157.195 145.9 158.026 145.069 159.089 144.489C160.172 143.889 161.419 143.59 162.83 143.59C164.26 143.59 165.507 143.889 166.57 144.489C167.634 145.088 168.455 145.929 169.035 147.011C169.634 148.094 169.934 149.379 169.934 150.868ZM162.83 146.489C161.805 146.489 160.984 146.876 160.365 147.649C159.766 148.423 159.466 149.495 159.466 150.868C159.466 152.26 159.756 153.342 160.336 154.116C160.935 154.87 161.766 155.247 162.83 155.247C163.893 155.247 164.714 154.86 165.294 154.087C165.894 153.313 166.193 152.241 166.193 150.868C166.193 149.495 165.894 148.423 165.294 147.649C164.695 146.876 163.874 146.489 162.83 146.489ZM178.178 150.085H181.803V153.478C181.803 154.096 181.986 154.541 182.354 154.812C182.74 155.082 183.272 155.218 183.948 155.218C184.258 155.218 184.586 155.179 184.934 155.102C185.302 155.005 185.611 154.908 185.862 154.812C186.017 154.966 186.143 155.16 186.239 155.391C186.355 155.604 186.413 155.855 186.413 156.145C186.413 156.725 186.152 157.209 185.63 157.595C185.108 157.963 184.267 158.146 183.108 158.146C181.58 158.146 180.372 157.808 179.483 157.131C178.613 156.435 178.178 155.295 178.178 153.71V150.085ZM180.382 147.156V144.286H186.065C186.162 144.421 186.249 144.614 186.326 144.866C186.404 145.117 186.442 145.397 186.442 145.707C186.442 146.19 186.326 146.557 186.094 146.808C185.862 147.04 185.553 147.156 185.166 147.156H180.382ZM181.803 150.868H178.178V140.4C178.333 140.361 178.555 140.313 178.845 140.255C179.154 140.197 179.483 140.168 179.831 140.168C180.507 140.168 181 140.294 181.31 140.545C181.638 140.796 181.803 141.241 181.803 141.879V150.868ZM195.865 152.724L195.691 150.143L203.405 149.012C203.347 148.297 203.066 147.678 202.564 147.156C202.061 146.615 201.346 146.344 200.418 146.344C199.432 146.344 198.62 146.683 197.982 147.359C197.344 148.036 197.016 149.003 196.996 150.259L197.083 151.825C197.238 153.023 197.702 153.913 198.475 154.493C199.268 155.053 200.254 155.333 201.433 155.333C202.245 155.333 202.999 155.218 203.695 154.986C204.391 154.734 204.941 154.473 205.347 154.203C205.618 154.357 205.84 154.57 206.014 154.841C206.188 155.111 206.275 155.401 206.275 155.71C206.275 156.213 206.053 156.658 205.608 157.044C205.164 157.412 204.555 157.692 203.782 157.885C203.028 158.079 202.167 158.175 201.201 158.175C199.693 158.175 198.359 157.895 197.199 157.334C196.059 156.774 195.16 155.942 194.503 154.841C193.865 153.719 193.546 152.347 193.546 150.723C193.546 149.524 193.729 148.481 194.097 147.591C194.464 146.683 194.967 145.939 195.604 145.359C196.242 144.759 196.967 144.315 197.779 144.025C198.61 143.735 199.49 143.59 200.418 143.59C201.694 143.59 202.815 143.851 203.782 144.373C204.748 144.875 205.502 145.581 206.043 146.489C206.585 147.398 206.855 148.442 206.855 149.621C206.855 150.162 206.71 150.568 206.42 150.839C206.15 151.11 205.763 151.284 205.26 151.361L195.865 152.724ZM225.916 152.492V150.23H229.599V152.434C229.599 153.42 229.86 154.135 230.382 154.58C230.904 155.024 231.629 155.247 232.557 155.247C233.156 155.247 233.659 155.189 234.064 155.073C234.49 154.957 234.809 154.831 235.021 154.696V150.23H238.675V155.044C238.675 155.488 238.598 155.865 238.443 156.174C238.288 156.464 238.008 156.725 237.602 156.957C237.061 157.305 236.355 157.595 235.485 157.827C234.615 158.059 233.63 158.175 232.528 158.175C231.194 158.175 230.024 157.972 229.019 157.566C228.033 157.16 227.27 156.542 226.728 155.71C226.187 154.879 225.916 153.806 225.916 152.492ZM238.675 151.593H235.021V144.054C235.176 143.996 235.398 143.947 235.688 143.909C235.998 143.851 236.326 143.822 236.674 143.822C237.389 143.822 237.902 143.947 238.211 144.199C238.52 144.431 238.675 144.875 238.675 145.533V151.593ZM229.599 151.593H225.916V144.054C226.071 143.996 226.303 143.947 226.612 143.909C226.922 143.851 227.25 143.822 227.598 143.822C228.294 143.822 228.797 143.947 229.106 144.199C229.435 144.431 229.599 144.875 229.599 145.533V151.593ZM259.622 148.258V151.564H255.939V148.693C255.939 147.92 255.717 147.359 255.272 147.011C254.847 146.663 254.286 146.489 253.59 146.489C253.107 146.489 252.663 146.567 252.257 146.721C251.851 146.876 251.512 147.031 251.242 147.185V151.564H247.559V146.924C247.559 146.48 247.656 146.113 247.849 145.823C248.042 145.513 248.342 145.223 248.748 144.953C249.328 144.566 250.062 144.247 250.952 143.996C251.86 143.725 252.779 143.59 253.706 143.59C254.654 143.59 255.524 143.735 256.316 144.025C257.109 144.315 257.776 144.74 258.317 145.301C258.452 145.436 258.578 145.562 258.694 145.678C258.81 145.794 258.907 145.929 258.984 146.084C259.158 146.354 259.303 146.683 259.419 147.069C259.554 147.437 259.622 147.833 259.622 148.258ZM268.002 148.548V151.564H264.348V148.693C264.348 147.92 264.136 147.359 263.71 147.011C263.285 146.663 262.724 146.489 262.028 146.489C261.507 146.489 261.004 146.596 260.521 146.808C260.057 147.021 259.651 147.301 259.303 147.649L257.476 145.417C258.056 144.914 258.752 144.489 259.564 144.141C260.395 143.773 261.371 143.59 262.492 143.59C263.517 143.59 264.445 143.764 265.276 144.112C266.107 144.44 266.765 144.972 267.248 145.707C267.751 146.422 268.002 147.369 268.002 148.548ZM247.559 150.172H251.242V157.711C251.087 157.75 250.855 157.798 250.546 157.856C250.256 157.914 249.927 157.943 249.56 157.943C248.883 157.943 248.381 157.818 248.052 157.566C247.723 157.315 247.559 156.87 247.559 156.232V150.172ZM255.939 150.172H259.622V157.711C259.467 157.75 259.235 157.798 258.926 157.856C258.636 157.914 258.317 157.943 257.969 157.943C257.273 157.943 256.761 157.818 256.432 157.566C256.103 157.315 255.939 156.87 255.939 156.232V150.172ZM264.348 150.172H268.002V157.711C267.847 157.75 267.615 157.798 267.306 157.856C267.016 157.914 266.697 157.943 266.349 157.943C265.653 157.943 265.141 157.818 264.812 157.566C264.503 157.315 264.348 156.87 264.348 156.232V150.172ZM294.396 158.146C293.642 158.146 292.946 158.05 292.308 157.856C291.689 157.663 291.177 157.441 290.771 157.189V154.029C291.138 154.319 291.573 154.589 292.076 154.841C292.578 155.092 293.168 155.218 293.845 155.218C295.004 155.218 295.913 154.86 296.57 154.145C297.228 153.41 297.556 152.298 297.556 150.81C297.556 149.766 297.402 148.935 297.092 148.316C296.783 147.678 296.358 147.214 295.816 146.924C295.275 146.634 294.647 146.489 293.932 146.489C293.41 146.489 292.946 146.557 292.54 146.692C292.153 146.828 291.815 146.973 291.525 147.127V156.232H287.871V146.75C287.871 146.286 287.958 145.91 288.132 145.62C288.326 145.33 288.625 145.059 289.031 144.808C289.592 144.479 290.288 144.199 291.119 143.967C291.969 143.715 292.907 143.59 293.932 143.59C295.362 143.59 296.628 143.841 297.73 144.344C298.851 144.846 299.721 145.629 300.34 146.692C300.978 147.756 301.297 149.128 301.297 150.81C301.297 152.414 300.997 153.768 300.398 154.87C299.818 155.952 299.006 156.774 297.962 157.334C296.918 157.876 295.729 158.146 294.396 158.146ZM289.872 163.163C289.195 163.163 288.693 163.037 288.364 162.786C288.036 162.534 287.871 162.09 287.871 161.452V155.218L291.554 155.247V162.931C291.399 162.969 291.167 163.018 290.858 163.076C290.568 163.134 290.239 163.163 289.872 163.163ZM311.138 152.724L310.964 150.143L318.678 149.012C318.62 148.297 318.339 147.678 317.837 147.156C317.334 146.615 316.619 146.344 315.691 146.344C314.705 146.344 313.893 146.683 313.255 147.359C312.617 148.036 312.289 149.003 312.269 150.259L312.356 151.825C312.511 153.023 312.975 153.913 313.748 154.493C314.541 155.053 315.527 155.333 316.706 155.333C317.518 155.333 318.272 155.218 318.968 154.986C319.664 154.734 320.214 154.473 320.62 154.203C320.891 154.357 321.113 154.57 321.287 154.841C321.461 155.111 321.548 155.401 321.548 155.71C321.548 156.213 321.326 156.658 320.881 157.044C320.437 157.412 319.828 157.692 319.055 157.885C318.301 158.079 317.44 158.175 316.474 158.175C314.966 158.175 313.632 157.895 312.472 157.334C311.332 156.774 310.433 155.942 309.776 154.841C309.138 153.719 308.819 152.347 308.819 150.723C308.819 149.524 309.002 148.481 309.37 147.591C309.737 146.683 310.24 145.939 310.877 145.359C311.515 144.759 312.24 144.315 313.052 144.025C313.883 143.735 314.763 143.59 315.691 143.59C316.967 143.59 318.088 143.851 319.055 144.373C320.021 144.875 320.775 145.581 321.316 146.489C321.858 147.398 322.128 148.442 322.128 149.621C322.128 150.162 321.983 150.568 321.693 150.839C321.423 151.11 321.036 151.284 320.533 151.361L311.138 152.724ZM330.252 150.085H333.876V153.478C333.876 154.096 334.06 154.541 334.427 154.812C334.814 155.082 335.346 155.218 336.022 155.218C336.332 155.218 336.66 155.179 337.008 155.102C337.375 155.005 337.685 154.908 337.936 154.812C338.091 154.966 338.216 155.16 338.313 155.391C338.429 155.604 338.487 155.855 338.487 156.145C338.487 156.725 338.226 157.209 337.704 157.595C337.182 157.963 336.341 158.146 335.181 158.146C333.654 158.146 332.446 157.808 331.557 157.131C330.687 156.435 330.252 155.295 330.252 153.71V150.085ZM332.456 147.156V144.286H338.139C338.236 144.421 338.323 144.614 338.4 144.866C338.477 145.117 338.516 145.397 338.516 145.707C338.516 146.19 338.4 146.557 338.168 146.808C337.936 147.04 337.627 147.156 337.24 147.156H332.456ZM333.876 150.868H330.252V140.4C330.407 140.361 330.629 140.313 330.919 140.255C331.228 140.197 331.557 140.168 331.905 140.168C332.581 140.168 333.074 140.294 333.384 140.545C333.712 140.796 333.876 141.241 333.876 141.879V150.868Z" fill="#DD5D4F"/>
</svg>
